# xmcd CD database file
#
# Track frame offsets:
#	150
#	13522
#	32439
#
# Disc length: 656 seconds
#
# Revision: 1
# Processed by: cddbd v1.5.2PL0 Copyright (c) Steve Scherf et al.
# Submitted via: CDex 1.40Beta9
#
DISCID=14028e03
DTITLE=Loretta Problem - Loretta Problem [CD Single)
DYEAR=1994
DGENRE=Punk
TTITLE0=Celebration Song
TTITLE1=I gotta go
TTITLE2=Problems
EXTD=YEAR: 1994 ID3G: 43
EXTT0=
EXTT1=
EXTT2=
PLAYORDER=
